# xmcd
#
# Track frame offsets: 
#        150
#        20804
#        43882
#        60233
#        78833
#        99917
#        115939
#        134503
#        153099
#        168959
#        188448
#        208929
#        224788
#        244181
#        266837
#
# Disc length: 3862 seconds
#
# Revision: 1
# Processed by: cddbd v1.5.2PL0 Copyright (c) Steve Scherf et al.
# Submitted via: ExactAudioCopyFreeDBPlugin 1.0
#
DISCID=d20f140f
DTITLE=群星 - TEST-CD试音极品16CDA
DYEAR=2013
DGENRE=stereo
TTITLE0=老人与海
TTITLE1=星光背后
TTITLE2=在水中央
TTITLE3=谁能唤回变了的心
TTITLE4=今夜情为证
TTITLE5=情浓恨更浓
TTITLE6=故乡的雨
TTITLE7=某夜
TTITLE8=一水隔天涯
TTITLE9=春花万里香
TTITLE10=逝去的诺言
TTITLE11=侧面
TTITLE12=天意人心
TTITLE13=是雨是泪
TTITLE14=平凡最浪漫
EXTD=
EXTT0=
EXTT1=
EXTT2=
EXTT3=
EXTT4=
EXTT5=
EXTT6=
EXTT7=
EXTT8=
EXTT9=
EXTT10=
EXTT11=
EXTT12=
EXTT13=
EXTT14=
PLAYORDER=
